<svg xmlns="http://www.w3.org/2000/svg" xmlns:xlink="http://www.w3.org/1999/xlink" width="500" zoomAndPan="magnify" viewBox="0 0 375 374.999991" height="500" preserveAspectRatio="xMidYMid meet" version="1.0"><defs><clipPath id="0fe1b0fa19"><path d="M 187.5 0 C 83.945312 0 0 83.945312 0 187.5 C 0 291.054688 83.945312 375 187.5 375 C 291.054688 375 375 291.054688 375 187.5 C 375 83.945312 291.054688 0 187.5 0 Z M 187.5 0 " clip-rule="nonzero"/></clipPath><clipPath id="47587e19b0"><path d="M 70 145 L 103 145 L 103 165 L 70 165 Z M 70 145 " clip-rule="nonzero"/></clipPath><clipPath id="40a6d9bbed"><path d="M 11.496094 184.199219 L 83.417969 127.636719 L 106.136719 156.523438 L 34.210938 213.085938 Z M 11.496094 184.199219 " clip-rule="nonzero"/></clipPath><clipPath id="36e15f3492"><path d="M 11.496094 184.199219 L 83.417969 127.636719 L 106.136719 156.523438 L 34.210938 213.085938 Z M 11.496094 184.199219 " clip-rule="nonzero"/></clipPath><clipPath id="8995687320"><path d="M 11.496094 184.199219 L 83.417969 127.636719 L 106.136719 156.523438 L 34.210938 213.085938 Z M 11.496094 184.199219 " clip-rule="nonzero"/></clipPath><clipPath id="39bec45444"><path d="M 69.523438 155.515625 L 91.65625 138.109375 L 106.140625 156.527344 L 84.007812 173.933594 Z M 69.523438 155.515625 " clip-rule="nonzero"/></clipPath><clipPath id="61f72d8f3a"><path d="M 69.523438 155.515625 L 91.65625 138.109375 L 106.132812 156.519531 L 84.003906 173.925781 Z M 69.523438 155.515625 " clip-rule="nonzero"/></clipPath><clipPath id="d58ed5835b"><path d="M 12 147 L 81 147 L 81 209 L 12 209 Z M 12 147 " clip-rule="nonzero"/></clipPath><clipPath id="43c2675969"><path d="M 11.496094 184.199219 L 83.417969 127.636719 L 106.136719 156.523438 L 34.210938 213.085938 Z M 11.496094 184.199219 " clip-rule="nonzero"/></clipPath><clipPath id="a4998e228c"><path d="M 11.496094 184.199219 L 83.417969 127.636719 L 106.136719 156.523438 L 34.210938 213.085938 Z M 11.496094 184.199219 " clip-rule="nonzero"/></clipPath><clipPath id="9c6cd61aee"><path d="M 11.496094 184.199219 L 83.417969 127.636719 L 106.136719 156.523438 L 34.210938 213.085938 Z M 11.496094 184.199219 " clip-rule="nonzero"/></clipPath><clipPath id="895d8c9409"><path d="M 58.679688 88 L 316.679688 88 L 316.679688 299.78125 L 58.679688 299.78125 Z M 58.679688 88 " clip-rule="nonzero"/></clipPath></defs><rect x="-37.5" width="450" fill="#ffffff" y="-37.499999" height="449.999989" fill-opacity="1"/><rect x="-37.5" width="450" fill="#ffffff" y="-37.499999" height="449.999989" fill-opacity="1"/><g clip-path="url(#0fe1b0fa19)"><rect x="-37.5" width="450" fill="#ffffff" y="-37.499999" height="449.999989" fill-opacity="1"/><path stroke-linecap="butt" transform="matrix(0.75, 0, 0, 0.75, 0.0000045, 0)" fill="none" stroke-linejoin="miter" d="M 249.999994 0 C 111.927078 0 -0.000006 111.927084 -0.000006 250 C -0.000006 388.072917 111.927078 500.000001 249.999994 500.000001 C 388.072911 500.000001 499.999995 388.072917 499.999995 250 C 499.999995 111.927084 388.072911 0 249.999994 0 Z M 249.999994 0 " stroke="#000000" stroke-width="22" stroke-opacity="1" stroke-miterlimit="4"/></g><g clip-path="url(#47587e19b0)"><g clip-path="url(#40a6d9bbed)"><g clip-path="url(#36e15f3492)"><g clip-path="url(#8995687320)"><g clip-path="url(#39bec45444)"><g clip-path="url(#61f72d8f3a)"><path fill="#e60012" d="M 99.382812 148.105469 C 97.5625 146.386719 95.179688 145.472656 92.6875 145.542969 C 90.351562 145.601562 84.992188 146.683594 80.074219 148.378906 C 79.285156 148.648438 78.542969 148.925781 77.847656 149.199219 L 78.144531 149.242188 L 78.160156 149.246094 L 78.175781 149.246094 C 79.246094 149.429688 80.152344 150.011719 80.75 150.824219 C 80.808594 150.804688 80.855469 150.785156 80.914062 150.769531 C 85.539062 149.175781 90.667969 148.125 92.773438 148.066406 C 94.589844 148.019531 96.328125 148.683594 97.660156 149.9375 C 98.996094 151.195312 99.761719 152.890625 99.824219 154.714844 C 99.898438 156.964844 98.875 158.996094 97.234375 160.289062 C 96.132812 161.15625 94.75 161.6875 93.242188 161.730469 C 91.09375 161.789062 85.882812 161.066406 81.207031 159.796875 C 81.117188 159.769531 81.023438 159.746094 80.941406 159.722656 C 80.765625 159.675781 80.601562 159.632812 80.441406 159.585938 C 80.277344 159.535156 80.113281 159.488281 79.953125 159.441406 C 78.492188 159.003906 77.3125 158.570312 76.367188 158.160156 C 76.199219 158.085938 76.035156 158.015625 75.882812 157.941406 C 75.707031 157.859375 75.542969 157.777344 75.390625 157.699219 C 73.597656 156.785156 72.992188 156.007812 72.976562 155.570312 C 72.964844 155.316406 73.144531 154.980469 73.480469 154.621094 C 72.5625 154.195312 71.476562 154.210938 70.5625 154.707031 C 70.480469 155.019531 70.445312 155.324219 70.457031 155.636719 C 70.511719 157.261719 71.792969 158.707031 74.351562 159.996094 C 74.507812 160.074219 74.667969 160.15625 74.835938 160.230469 C 74.992188 160.304688 75.152344 160.378906 75.324219 160.453125 C 76.542969 160.992188 78.007812 161.507812 79.703125 161.996094 C 79.859375 162.039062 80.027344 162.089844 80.195312 162.132812 C 80.3125 162.167969 80.441406 162.203125 80.566406 162.234375 C 80.605469 162.246094 80.644531 162.257812 80.6875 162.269531 C 85.613281 163.597656 90.972656 164.316406 93.328125 164.253906 C 95.808594 164.1875 98.128906 163.15625 99.835938 161.335938 C 101.539062 159.519531 102.429688 157.148438 102.34375 154.648438 C 102.261719 152.148438 101.207031 149.824219 99.382812 148.105469 " fill-opacity="1" fill-rule="nonzero"/></g></g></g></g></g></g><g clip-path="url(#d58ed5835b)"><g clip-path="url(#43c2675969)"><g clip-path="url(#a4998e228c)"><g clip-path="url(#9c6cd61aee)"><path fill="#e60012" d="M 74.785156 160.957031 C 72.9375 162.410156 70.25 162.082031 68.785156 160.214844 C 67.320312 158.351562 67.628906 155.664062 69.480469 154.207031 C 69.789062 153.964844 70.117188 153.777344 70.464844 153.632812 C 70.585938 153.574219 70.714844 153.535156 70.839844 153.492188 C 70.964844 153.453125 71.089844 153.417969 71.214844 153.398438 C 72.257812 153.171875 73.363281 153.351562 74.289062 153.90625 C 74.367188 153.949219 74.445312 153.996094 74.519531 154.050781 C 74.59375 154.097656 74.664062 154.15625 74.734375 154.210938 C 75.007812 154.417969 75.257812 154.667969 75.480469 154.949219 C 76.109375 155.746094 76.410156 156.691406 76.40625 157.625 C 77.316406 158.03125 78.496094 158.472656 80.003906 158.929688 L 80.546875 153.46875 C 80.597656 152.789062 80.414062 152.144531 80.070312 151.609375 C 80.027344 151.535156 79.972656 151.460938 79.921875 151.394531 C 79.863281 151.320312 79.808594 151.257812 79.746094 151.1875 C 79.304688 150.707031 78.707031 150.363281 78.011719 150.246094 L 76.0625 149.972656 L 75.609375 149.910156 L 75.171875 149.847656 L 59.480469 147.648438 C 58.664062 147.535156 57.84375 147.753906 57.203125 148.261719 L 13.871094 182.335938 C 12.5625 183.367188 12.339844 185.273438 13.378906 186.59375 L 29.984375 207.707031 C 31.023438 209.03125 32.925781 209.261719 34.234375 208.234375 L 77.566406 174.15625 C 78.210938 173.648438 78.617188 172.902344 78.703125 172.089844 L 79.652344 162.5 C 77.816406 161.980469 76.246094 161.421875 74.941406 160.828125 C 74.894531 160.875 74.835938 160.917969 74.785156 160.957031 " fill-opacity="1" fill-rule="nonzero"/></g></g></g></g><g clip-path="url(#895d8c9409)"><path fill="#004aad" d="M 104.914062 152.464844 L 120.03125 113.785156 C 120.140625 113.453125 120.476562 113.230469 120.808594 112.894531 C 121.585938 112.339844 122.699219 111.894531 123.921875 111.453125 C 129.589844 109.5625 137.8125 108.003906 147.371094 107.003906 C 173.046875 104.117188 202.058594 104.117188 227.730469 107.003906 C 237.289062 108.117188 245.515625 109.671875 251.183594 111.453125 C 252.40625 111.894531 253.515625 112.339844 254.296875 112.894531 C 254.628906 113.117188 254.960938 113.453125 255.074219 113.785156 L 270.1875 152.464844 C 272.96875 153.351562 275.636719 154.464844 278.191406 155.6875 L 291.308594 162.132812 L 270.1875 107.894531 C 268.855469 104.449219 266.632812 101.78125 263.964844 99.78125 C 261.632812 98.113281 259.074219 96.890625 256.40625 96.003906 C 249.738281 93.777344 240.289062 92 229.621094 90.777344 C 202.722656 87.777344 172.601562 87.777344 145.707031 90.777344 C 134.8125 92.113281 125.367188 93.890625 118.695312 96.113281 C 116.03125 97.003906 113.472656 98.113281 111.140625 99.890625 C 108.472656 101.894531 106.25 104.449219 104.914062 108.003906 L 83.796875 162.246094 L 96.914062 155.796875 C 99.359375 154.464844 102.136719 153.464844 104.914062 152.464844 Z M 130.257812 155.578125 C 118.695312 156.910156 108.25 159.132812 100.46875 162.910156 C 116.03125 166.691406 128.144531 179.472656 130.921875 195.367188 C 132.144531 202.367188 137.371094 207.480469 144.371094 208.59375 C 165.824219 211.925781 209.171875 211.925781 230.730469 208.59375 C 237.734375 207.480469 242.957031 202.367188 244.179688 195.367188 C 246.960938 179.472656 259.074219 166.691406 274.636719 163.023438 C 266.855469 159.132812 256.296875 156.910156 244.847656 155.6875 C 211.28125 151.796875 163.710938 151.796875 130.257812 155.578125 Z M 283.859375 169.914062 C 268.746094 169.914062 256.074219 180.25 252.515625 194.144531 C 252.515625 194.144531 251.960938 196.476562 251.960938 196.699219 C 250.183594 207.035156 242.179688 214.929688 231.84375 216.484375 C 206.945312 220.375 167.824219 220.375 143.039062 216.484375 C 132.703125 214.816406 124.699219 207.035156 122.921875 196.699219 C 122.921875 196.476562 122.476562 194.144531 122.363281 194.144531 C 118.808594 180.140625 106.136719 169.914062 91.023438 169.914062 C 73.128906 169.914062 58.679688 184.472656 58.679688 202.367188 L 58.679688 234.710938 C 58.679688 252.605469 73.128906 267.054688 91.023438 267.054688 L 283.972656 267.054688 C 301.867188 267.054688 316.316406 252.605469 316.316406 234.710938 L 316.316406 202.367188 C 316.316406 184.472656 301.753906 169.914062 283.859375 169.914062 Z M 99.136719 242.714844 L 78.90625 242.714844 C 76.683594 242.714844 74.90625 240.9375 74.90625 238.714844 C 74.90625 236.492188 76.683594 234.710938 78.90625 234.710938 L 99.136719 234.710938 C 101.359375 234.710938 103.136719 236.492188 103.136719 238.714844 C 103.136719 240.9375 101.359375 242.714844 99.136719 242.714844 Z M 91.023438 218.484375 C 82.128906 218.484375 74.792969 211.261719 74.792969 202.257812 C 74.792969 193.367188 82.019531 186.03125 91.023438 186.03125 C 99.914062 186.03125 107.25 193.253906 107.25 202.257812 C 107.25 211.261719 99.914062 218.484375 91.023438 218.484375 Z M 243.515625 250.828125 L 131.480469 250.828125 C 127.03125 250.828125 123.367188 247.160156 123.367188 242.714844 C 123.367188 238.269531 127.03125 234.601562 131.480469 234.601562 L 243.515625 234.601562 C 247.960938 234.601562 251.628906 238.269531 251.628906 242.714844 C 251.515625 247.160156 247.960938 250.828125 243.515625 250.828125 Z M 296.085938 242.714844 L 275.859375 242.714844 C 273.636719 242.714844 271.855469 240.9375 271.855469 238.714844 C 271.855469 236.492188 273.636719 234.710938 275.859375 234.710938 L 296.085938 234.710938 C 298.308594 234.710938 300.085938 236.492188 300.085938 238.714844 C 300.085938 240.9375 298.308594 242.714844 296.085938 242.714844 Z M 283.859375 218.484375 C 274.96875 218.484375 267.632812 211.261719 267.632812 202.257812 C 267.632812 193.367188 274.859375 186.03125 283.859375 186.03125 C 292.753906 186.03125 300.085938 193.253906 300.085938 202.257812 C 300.085938 211.261719 292.863281 218.484375 283.859375 218.484375 Z M 58.679688 258.941406 L 58.679688 291.285156 C 58.679688 295.730469 62.347656 299.398438 66.792969 299.398438 L 99.136719 299.398438 C 103.582031 299.398438 107.25 295.730469 107.25 291.285156 L 107.25 275.058594 L 91.023438 275.058594 C 77.796875 275.167969 66.015625 268.722656 58.679688 258.941406 Z M 283.859375 275.167969 L 267.632812 275.167969 L 267.632812 291.398438 C 267.632812 295.84375 271.300781 299.511719 275.746094 299.511719 L 308.089844 299.511719 C 312.535156 299.511719 316.203125 295.84375 316.203125 291.398438 L 316.203125 259.054688 C 308.867188 268.722656 297.085938 275.167969 283.859375 275.167969 Z M 283.859375 275.167969 " fill-opacity="1" fill-rule="evenodd"/></g></svg>